<svg width="83" height="83" viewBox="0 0 83 83" fill="none" xmlns="http://www.w3.org/2000/svg">
<circle cx="41.5" cy="41.5" r="41.5" fill="#005CAA"/>
<g clip-path="url(#clip0_0_1)">
<path d="M16.0008 40.973C15.9812 45.8881 19.9499 49.8884 24.865 49.908C27.1287 49.9169 29.3107 49.063 30.9669 47.52L44.2293 53.508C44.1371 54.0039 44.0866 54.5065 44.0781 55.0108C44.0624 59.9597 48.0616 63.9843 53.0106 64C57.9596 64.0157 61.9841 60.0164 61.9998 55.0675C62.0155 50.1185 58.0163 46.0939 53.0673 46.0782C50.1105 46.0689 47.3394 47.5187 45.6612 49.9531L33.2009 44.3269C34.086 42.1898 34.0894 39.7893 33.2105 37.6497L45.6536 31.9948C48.4555 36.0473 54.0121 37.0609 58.0646 34.259C62.117 31.4571 63.1306 25.9006 60.3286 21.8481C57.5267 17.7957 51.9701 16.782 47.9177 19.584C45.5043 21.2526 44.0658 24.0013 44.0703 26.9354C44.0784 27.4404 44.1297 27.9437 44.2235 28.44L30.9956 34.4509C27.4118 31.0856 21.7784 31.2629 18.4131 34.8467C16.8556 36.5056 15.9924 38.6976 16.0008 40.973Z" fill="white"/>
</g>
<defs>
<clipPath id="clip0_0_1">
<rect width="46" height="46" fill="white" transform="translate(16 18)"/>
</clipPath>
</defs>
</svg>
